<mxfile host="app.diagrams.net" modified="2022-07-02T08:41:10.971Z" agent="5.0 (Macintosh; Intel Mac OS X 10_15_7) AppleWebKit/537.36 (KHTML, like Gecko) Chrome/102.0.0.0 Safari/537.36" etag="rCdBDj62M9ZYO2lErsgr" version="20.0.4" type="github">
  <diagram id="m-GgMvyPBbnMRSH8FVqp" name="Page-1">
    <mxGraphModel dx="946" dy="553" grid="1" gridSize="10" guides="1" tooltips="1" connect="1" arrows="1" fold="1" page="1" pageScale="1" pageWidth="827" pageHeight="1169" math="0" shadow="0">
      <root>
        <mxCell id="0" />
        <mxCell id="1" parent="0" />
        <mxCell id="OrsszcL2pZaC2zf-PoRO-1" value="" style="group" vertex="1" connectable="0" parent="1">
          <mxGeometry x="120" y="80" width="600" height="360" as="geometry" />
        </mxCell>
        <mxCell id="leMo0b2_02aemO6liC5t-1" value="" style="rounded=0;whiteSpace=wrap;html=1;" parent="OrsszcL2pZaC2zf-PoRO-1" vertex="1">
          <mxGeometry width="600" height="360" as="geometry" />
        </mxCell>
        <mxCell id="leMo0b2_02aemO6liC5t-2" value="" style="rounded=0;whiteSpace=wrap;html=1;" parent="OrsszcL2pZaC2zf-PoRO-1" vertex="1">
          <mxGeometry width="600" height="50" as="geometry" />
        </mxCell>
        <mxCell id="leMo0b2_02aemO6liC5t-3" value="サイドメニュー" style="rounded=0;whiteSpace=wrap;html=1;" parent="OrsszcL2pZaC2zf-PoRO-1" vertex="1">
          <mxGeometry y="50" width="170" height="270" as="geometry" />
        </mxCell>
        <mxCell id="leMo0b2_02aemO6liC5t-4" value="フッター" style="rounded=0;whiteSpace=wrap;html=1;" parent="OrsszcL2pZaC2zf-PoRO-1" vertex="1">
          <mxGeometry y="320" width="600" height="40" as="geometry" />
        </mxCell>
        <mxCell id="leMo0b2_02aemO6liC5t-5" value="メイン" style="rounded=0;whiteSpace=wrap;html=1;" parent="OrsszcL2pZaC2zf-PoRO-1" vertex="1">
          <mxGeometry x="170" y="50" width="430" height="270" as="geometry" />
        </mxCell>
        <mxCell id="OrsszcL2pZaC2zf-PoRO-2" value="ロゴマーク" style="text;html=1;strokeColor=none;fillColor=none;align=center;verticalAlign=middle;whiteSpace=wrap;rounded=0;" vertex="1" parent="OrsszcL2pZaC2zf-PoRO-1">
          <mxGeometry width="80" height="30" as="geometry" />
        </mxCell>
        <mxCell id="OrsszcL2pZaC2zf-PoRO-3" value="プロィール" style="rounded=0;whiteSpace=wrap;html=1;" vertex="1" parent="OrsszcL2pZaC2zf-PoRO-1">
          <mxGeometry x="340" y="20" width="70" height="20" as="geometry" />
        </mxCell>
        <mxCell id="OrsszcL2pZaC2zf-PoRO-4" value="アカウント" style="rounded=0;whiteSpace=wrap;html=1;" vertex="1" parent="OrsszcL2pZaC2zf-PoRO-1">
          <mxGeometry x="420" y="20" width="70" height="20" as="geometry" />
        </mxCell>
        <mxCell id="OrsszcL2pZaC2zf-PoRO-6" value="ログアウト" style="rounded=0;whiteSpace=wrap;html=1;" vertex="1" parent="OrsszcL2pZaC2zf-PoRO-1">
          <mxGeometry x="500" y="20" width="70" height="20" as="geometry" />
        </mxCell>
      </root>
    </mxGraphModel>
  </diagram>
</mxfile>
